<svg width="19" height="18" xmlns="http://www.w3.org/2000/svg" class="Svg"><path d="M13.122 14.778a51.75 51.75 0 0 0-1.278-4.725c.45-.063.9-.099 1.422-.099h.018c.837 0 1.755.108 2.754.333a7.01 7.01 0 0 1-2.916 4.491ZM9.144 16.02a6.946 6.946 0 0 1-4.176-1.386c.252-.405.783-1.188 1.638-1.998a9.59 9.59 0 0 1 3.645-2.214 35.383 35.383 0 0 1 1.386 5.139 6.858 6.858 0 0 1-2.493.459ZM2.124 9v-.099c.198.009.459.009.765.009h.009c1.404-.009 3.87-.126 6.372-.909.135.297.27.603.405.927a11.266 11.266 0 0 0-3.96 2.322A13.216 13.216 0 0 0 3.78 13.5 6.934 6.934 0 0 1 2.124 9Zm3.915-6.3c.495.585 1.467 1.854 2.51 3.825-2.105.639-4.256.783-5.543.783h-.118c-.215 0-.404 0-.557-.009C2.844 5.283 4.194 3.6 6.039 2.7Zm3.105-.72c1.656 0 3.177.576 4.374 1.539C12.6 4.626 11.394 5.4 10.07 5.985A26.693 26.693 0 0 0 7.65 2.142a7.447 7.447 0 0 1 1.494-.162Zm5.517 2.682a7.041 7.041 0 0 1 1.494 4.005 13.789 13.789 0 0 0-2.871-.315h-.01c-.72 0-1.394.063-2.033.171-.153-.378-.297-.738-.468-1.089 1.422-.621 2.78-1.512 3.888-2.772ZM9.144 0a9 9 0 1 0 0 18 9 9 0 0 0 0-18Z" fill="#9EA0A6" fill-rule="nonzero"></path></svg>